# xmcd CD database file
#
# Track frame offsets:
#	150
#	18183
#	39165
#	63601
#	82960
#	100953
#	118216
#	136558
#	155067
#	174455
#	197408
#	211210
#	233825
#	253574
#
# Disc length: 3646 seconds
#
# Revision: 0
# Processed by: cddbd v1.5.2PL0 Copyright (c) Steve Scherf et al.
# Submitted via: CDex 1.50
#
DISCID=af0e3c0e
DTITLE=Hector Contreras - And his Latin Jazz Ensemble
DYEAR=2006
DGENRE=Salsa
TTITLE0=Firehouse
TTITLE1=La Perla Del Caribe
TTITLE2=Tu Y Yo
TTITLE3=Inner Spirit
TTITLE4=Fantasy of Shell
TTITLE5=Its All Good
TTITLE6=Serenity
TTITLE7=C J Max
TTITLE8=Pasadena Cha-Cha
TTITLE9=Friends
TTITLE10=Un Dia En España
TTITLE11=Mi Pueblo
TTITLE12=Memories of Sergio
TTITLE13=Samba For You
EXTD=YEAR: 2006
EXTT0=
EXTT1=
EXTT2=
EXTT3=
EXTT4=
EXTT5=
EXTT6=
EXTT7=
EXTT8=
EXTT9=
EXTT10=
EXTT11=
EXTT12=
EXTT13=
PLAYORDER=
